HIERARCHY
ROOT Hips
{
	OFFSET 0.00000 0.00000 0.00000
	CHANNELS 6 Xposition Yposition Zposition Zrotation Yrotation Xrotation 
	JOINT LHipJoint
	{
		OFFSET 0 0 0
		CHANNELS 3 Zrotation Yrotation Xrotation
		JOINT LeftUpLeg
		{
			OFFSET 1.65674 -1.80282 0.62477
			CHANNELS 3 Zrotation Yrotation Xrotation
			JOINT LeftLeg
			{
				OFFSET 2.59720 -7.13576 0.00000
				CHANNELS 3 Zrotation Yrotation Xrotation
				JOINT LeftFoot
				{
					OFFSET 2.49236 -6.84770 0.00000
					CHANNELS 3 Zrotation Yrotation Xrotation
					JOINT LeftToeBase
					{
						OFFSET 0.19704 -0.54136 2.14581
						CHANNELS 3 Zrotation Yrotation Xrotation
						End Site
						{
							OFFSET 0.00000 -0.00000 1.11249
						}
					}
				}
			}
		}
	}
	JOINT RHipJoint
	{
		OFFSET 0 0 0
		CHANNELS 3 Zrotation Yrotation Xrotation
		JOINT RightUpLeg
		{
			OFFSET -1.61070 -1.80282 0.62476
			CHANNELS 3 Zrotation Yrotation Xrotation
			JOINT RightLeg
			{
				OFFSET -2.59502 -7.12977 0.00000
				CHANNELS 3 Zrotation Yrotation Xrotation
				JOINT RightFoot
				{
					OFFSET -2.46780 -6.78024 0.00000
					CHANNELS 3 Zrotation Yrotation Xrotation
					JOINT RightToeBase
					{
						OFFSET -0.23024 -0.63258 2.13368
						CHANNELS 3 Zrotation Yrotation Xrotation
						End Site
						{
							OFFSET -0.00000 -0.00000 1.11569
						}
					}
				}
			}
		}
	}
	JOINT LowerBack
	{
		OFFSET 0 0 0
		CHANNELS 3 Zrotation Yrotation Xrotation
		JOINT Spine
		{
			OFFSET 0.01961 2.05450 -0.14112
			CHANNELS 3 Zrotation Yrotation Xrotation
			JOINT Spine1
			{
				OFFSET 0.01021 2.06436 -0.05921
				CHANNELS 3 Zrotation Yrotation Xrotation
				JOINT Neck
				{
					OFFSET 0 0 0
					CHANNELS 3 Zrotation Yrotation Xrotation
					JOINT Neck1
					{
						OFFSET 0.00713 1.56711 0.14968
						CHANNELS 3 Zrotation Yrotation Xrotation
						JOINT Head
						{
							OFFSET 0.03429 1.56041 -0.10006
							CHANNELS 3 Zrotation Yrotation Xrotation
							End Site
							{
								OFFSET 0.01305 1.62560 -0.05265
							}
						}
					}
				}
				JOINT LeftShoulder
				{
					OFFSET 0 0 0
					CHANNELS 3 Zrotation Yrotation Xrotation
					JOINT LeftArm
					{
						OFFSET 3.54205 0.90436 -0.17364
						CHANNELS 3 Zrotation Yrotation Xrotation
						JOINT LeftForeArm
						{
							OFFSET 4.86513 -0.00000 -0.00000
							CHANNELS 3 Zrotation Yrotation Xrotation
							JOINT LeftHand
							{
								OFFSET 3.35554 -0.00000 0.00000
								CHANNELS 3 Zrotation Yrotation Xrotation
								JOINT LeftFingerBase
								{
									OFFSET 0 0 0
									CHANNELS 3 Zrotation Yrotation Xrotation
									JOINT LeftHandIndex1
									{
										OFFSET 0.66117 -0.00000 0.00000
										CHANNELS 3 Zrotation Yrotation Xrotation
										End Site
										{
											OFFSET 0.53306 -0.00000 0.00000
										}
									}
								}
								JOINT LThumb
								{
									OFFSET 0 0 0
									CHANNELS 3 Zrotation Yrotation Xrotation
									End Site
									{
										OFFSET 0.54120 -0.00000 0.54120
									}
								}
							}
						}
					}
				}
				JOINT RightShoulder
				{
					OFFSET 0 0 0
					CHANNELS 3 Zrotation Yrotation Xrotation
					JOINT RightArm
					{
						OFFSET -3.49802 0.75994 -0.32616
						CHANNELS 3 Zrotation Yrotation Xrotation
						JOINT RightForeArm
						{
							OFFSET -5.02649 -0.00000 0.00000
							CHANNELS 3 Zrotation Yrotation Xrotation
							JOINT RightHand
							{
								OFFSET -3.36431 -0.00000 0.00000
								CHANNELS 3 Zrotation Yrotation Xrotation
								JOINT RightFingerBase
								{
									OFFSET 0 0 0
									CHANNELS 3 Zrotation Yrotation Xrotation
									JOINT RightHandIndex1
									{
										OFFSET -0.73041 -0.00000 0.00000
										CHANNELS 3 Zrotation Yrotation Xrotation
										End Site
										{
											OFFSET -0.58887 -0.00000 0.00000
										}
									}
								}
								JOINT RThumb
								{
									OFFSET 0 0 0
									CHANNELS 3 Zrotation Yrotation Xrotation
									End Site
									{
										OFFSET -0.59786 -0.00000 0.59786
									}
								}
							}
						}
					}
				}
			}
		}
	}
}
MOTION
Frames: 13
Frame Time: .0083333
10.8442 17.2807 -3.9758 -16.6220 -51.6283 21.8909 0.0000 0.0000 0.0000 -0.4141 8.7856 -39.8996 4.5981 12.9164 39.0563 -0.5042 14.3784 -12.9888 0.0046 -0.4399 -1.2086 0.0000 0.0000 0.0000 27.9942 17.0911 -18.1866 -2.5236 -9.8806 28.5910 -0.5102 -1.0882 -13.9305 -0.4011 4.0663 -11.2632 -2.1616 1.6503 16.1362 -4.9699 1.4050 7.8675 -4.2425 0.6014 -0.5956 2.7416 9.6905 -12.6481 -3.0596 12.5988 -1.1585 -0.6888 6.2004 2.1644 0.0000 0.0000 0.0000 -87.0541 -46.6294 29.0118 34.8725 -44.7209 -14.7236 -0.0000 0.0000 -70.5974 32.5231 20.0880 12.3530 -7.1250 0.0000 -0.0000 4.3076 53.3767 0.8888 0.0000 0.0000 0.0000 108.6100 43.7184 95.2628 -21.6126 32.5365 -6.3762 0.0000 -0.0000 -10.7739 -35.9110 9.7513 -6.9926 7.1250 -0.0000 -0.0000 -6.2721 -18.0424 -4.0454
10.8654 17.2725 -3.9783 -18.1110 -52.1592 23.4194 0.0000 0.0000 0.0000 0.3341 9.5071 -40.4159 4.7076 13.0467 39.5436 -0.4658 14.2043 -13.3908 0.0000 -0.0218 -0.0598 0.0000 0.0000 0.0000 28.7235 17.2704 -18.3838 -2.4781 -9.7980 28.3249 -0.4999 -0.4789 -13.5383 -0.3366 3.7287 -10.3145 -1.9594 1.3810 16.1656 -5.1265 1.0707 8.0978 -4.4692 0.4382 -0.3772 2.8808 10.2166 -12.4218 -3.3319 13.2913 -1.5018 -0.7698 6.5450 2.0578 -0.0000 0.0000 0.0000 -87.5048 -46.5036 29.3248 33.7156 -43.8729 -13.9156 -0.0000 0.0000 -71.3936 32.3518 20.0197 12.2353 -7.1250 0.0000 -0.0000 4.1332 53.2638 0.8413 -0.0000 0.0000 0.0000 108.1076 43.3139 94.6719 -21.6279 32.5539 -6.3845 0.0000 -0.0000 -10.5371 -35.8882 9.5070 -6.8151 7.1250 -0.0000 -0.0000 -6.2879 -18.3412 -4.0141
10.8921 17.2595 -3.9773 -19.2653 -52.5113 24.6707 0.0000 0.0000 0.0000 1.0357 9.6003 -40.8441 4.7997 13.1546 39.9501 -0.4762 14.4417 -13.7319 0.0036 0.3866 1.0622 0.0000 0.0000 0.0000 29.1965 17.4567 -18.6421 -2.4408 -9.7295 28.1051 -0.4837 -0.0407 -13.1556 -0.3007 3.5258 -9.7463 -1.8239 1.1105 16.3360 -5.2635 0.7186 8.3161 -4.6390 0.2643 -0.2513 2.8365 10.4851 -12.1587 -3.6386 13.6637 -1.9340 -0.8600 6.7310 1.8980 0.0000 0.0000 0.0000 -88.2607 -46.4030 30.0167 32.7510 -43.1378 -13.2515 -0.0000 0.0000 -71.9585 32.6067 20.5820 12.6739 -7.1250 0.0000 -0.0000 4.3318 53.9542 0.9549 0.0000 0.0000 0.0000 107.2194 43.0807 94.1871 -21.6715 32.6038 -6.4080 0.0000 -0.0000 -10.8769 -35.9704 8.6926 -6.2595 7.1250 -0.0000 -0.0000 -6.4494 -19.3180 -3.9779
10.9294 17.2606 -3.9702 -19.3442 -53.2835 25.2327 0.0000 0.0000 0.0000 0.7997 9.6678 -41.3841 4.8706 13.2366 40.2607 -0.5391 15.0287 -13.8555 0.0000 0.0351 0.0965 0.0000 0.0000 0.0000 28.7695 17.5784 -19.2014 -2.4134 -9.6787 27.9424 -0.4604 0.5991 -12.6230 -0.3195 3.6332 -10.0468 -2.4637 0.9374 16.5494 -5.6030 0.3662 8.3794 -4.5845 0.0692 -0.3194 3.0164 10.7169 -11.9225 -4.0890 13.9620 -2.2037 -1.0268 6.8741 1.8280 -0.0000 -0.0000 0.0000 -88.8326 -46.1225 30.9936 32.0758 -42.6076 -12.7921 -0.0000 0.0000 -73.1307 33.3045 20.0465 12.6916 -7.1250 0.0000 -0.0000 5.1529 53.4926 1.0784 -0.0000 -0.0000 0.0000 106.0891 42.7912 93.7135 -21.8639 32.8229 -6.5119 0.0000 -0.0000 -11.5072 -35.8829 7.7942 -5.6032 7.1250 -0.0000 -0.0000 -6.4995 -20.4195 -3.8480
10.9554 17.2716 -3.9714 -19.3958 -54.3529 25.6906 0.0000 0.0000 0.0000 0.3307 10.2934 -41.7866 4.9559 13.3340 40.6320 -0.5467 15.2279 -14.1847 0.0005 -0.1490 -0.4094 0.0000 0.0000 0.0000 28.3446 17.6710 -19.6108 -2.3957 -9.6457 27.8367 -0.4354 1.4186 -12.0518 -0.3329 3.7081 -10.2568 -3.3165 0.8383 16.7425 -6.0870 0.0665 8.4462 -4.5722 -0.1059 -0.3643 3.0652 11.0544 -11.7026 -4.2254 14.4101 -2.4986 -1.0683 7.1024 1.7207 -0.0000 0.0000 0.0000 -89.1079 -45.8732 31.4639 30.9345 -41.6810 -12.0263 -0.0000 0.0000 -73.6895 31.6144 18.8173 11.2299 -7.1250 0.0000 -0.0000 3.5117 51.7553 0.5848 -0.0000 0.0000 0.0000 105.4151 42.3424 93.1536 -21.9086 32.8736 -6.5362 0.0000 -0.0000 -11.6317 -35.6919 7.7724 -5.5489 7.1250 -0.0000 -0.0000 -6.3665 -20.4673 -3.7614
10.9746 17.2688 -3.9809 -20.4735 -55.1878 26.9033 0.0000 0.0000 0.0000 0.6618 10.9646 -42.1102 5.0721 13.4645 41.1333 -0.4844 15.0685 -14.9890 0.0066 0.5251 1.4429 0.0000 0.0000 0.0000 28.6348 18.0453 -19.8536 -2.3889 -9.6330 27.7963 -0.4068 1.8870 -11.5414 -0.3153 3.6095 -9.9806 -3.6787 0.6791 16.9337 -6.4327 -0.2354 8.5279 -4.6901 -0.2690 -0.3907 3.3090 11.4349 -11.3900 -4.5531 14.8928 -2.9481 -1.2061 7.3455 1.5827 -0.0000 0.0000 0.0000 -89.2704 -45.5745 31.9169 30.0002 -40.8935 -11.4097 -0.0000 0.0000 -73.6740 31.1157 18.1569 10.6527 -7.1250 0.0000 -0.0000 3.0805 50.9145 0.4493 -0.0000 0.0000 0.0000 105.1282 41.8431 92.8221 -21.8129 32.7649 -6.4843 0.0000 -0.0000 -11.4274 -35.3721 7.7348 -5.4579 7.1250 -0.0000 -0.0000 -6.1437 -20.5478 -3.6170
10.9886 17.2500 -3.9985 -22.4717 -56.2223 29.3002 0.0000 0.0000 0.0000 1.3728 12.0600 -42.9418 5.2019 13.6077 41.6880 -0.4453 15.0010 -15.5238 0.0237 0.9930 2.7296 0.0000 0.0000 0.0000 29.2249 19.2092 -20.3479 -2.3842 -9.6242 27.7680 -0.3668 2.1195 -10.9015 -0.2945 3.4899 -9.6457 -3.9346 0.7684 16.5804 -6.5514 -0.1441 8.5173 -4.6841 -0.2346 -0.2109 3.3743 11.6210 -11.4128 -4.8633 15.1331 -3.1378 -1.2992 7.4614 1.5664 0.0000 -0.0000 0.0000 -89.9248 -45.3645 32.5760 29.7981 -40.7197 -11.2777 -0.0000 0.0000 -73.6134 31.9127 20.7936 12.4664 -7.1250 0.0000 -0.0000 3.5503 54.0464 0.7902 0.0000 -0.0000 0.0000 104.4211 41.5977 92.0758 -21.6964 32.6322 -6.4214 0.0000 -0.0000 -11.0603 -34.9606 7.1788 -4.9935 7.1250 -0.0000 -0.0000 -5.9137 -21.2618 -3.3844
10.9975 17.2283 -4.0162 -24.4292 -57.2068 31.9171 0.0000 0.0000 0.0000 1.8876 13.2899 -44.0882 5.3156 13.7307 42.1691 -0.4396 15.0061 -15.6286 0.0184 0.8764 2.4088 0.0000 0.0000 0.0000 29.7020 20.4423 -21.0564 -2.3792 -9.6150 27.7386 -0.3315 2.4885 -10.3004 -0.2745 3.3703 -9.3115 -4.2593 0.8551 15.9607 -6.6577 -0.0379 8.4410 -4.6236 -0.1932 0.0394 3.0464 11.7257 -11.8360 -4.7649 15.3050 -2.9906 -1.1786 7.5455 1.6559 -0.0000 -0.0000 0.0000 -90.8757 -45.1280 33.1083 29.1253 -40.1317 -10.8414 -0.0000 0.0000 -72.9864 31.2866 22.0080 12.8288 -7.1250 0.0000 -0.0000 2.6580 55.2727 0.6707 -0.0000 -0.0000 0.0000 103.6552 41.4070 91.1799 -21.6327 32.5594 -6.3870 0.0000 -0.0000 -10.7429 -34.7373 6.8308 -4.7146 7.1250 -0.0000 -0.0000 -5.7916 -21.7024 -3.2557
11.0183 17.2228 -4.0110 -24.7404 -57.5683 32.4771 0.0000 0.0000 0.0000 1.8691 13.3955 -44.4263 5.3838 13.8034 42.4554 -0.4419 15.1312 -15.8475 0.0238 0.9960 2.7379 0.0000 0.0000 0.0000 29.6599 20.3754 -21.4730 -2.3774 -9.6115 27.7275 -0.3106 2.8938 -9.9276 -0.2628 3.2980 -9.1094 -4.6681 0.5001 16.3222 -6.9908 -0.6128 8.4656 -4.6613 -0.4907 -0.1493 3.1323 12.0410 -11.8800 -4.9800 15.7186 -3.0200 -1.2264 7.7481 1.6957 0.0000 0.0000 0.0000 -91.3573 -44.6754 32.9891 28.5678 -39.6337 -10.4839 -0.0000 0.0000 -72.9916 30.9155 22.5073 12.9115 -7.1250 0.0000 -0.0000 2.1488 55.7466 0.5668 0.0000 0.0000 0.0000 103.2652 40.9403 90.8939 -21.6403 32.5681 -6.3911 0.0000 -0.0000 -10.6196 -34.7224 6.6681 -4.6008 7.1250 -0.0000 -0.0000 -5.7985 -21.8995 -3.2335
11.0473 17.2253 -3.9961 -24.4726 -57.9278 32.0150 0.0000 0.0000 0.0000 1.6553 13.1434 -44.0412 5.4245 13.8465 42.6259 -0.4411 15.3742 -16.3504 0.0570 1.5407 4.2378 0.0000 0.0000 0.0000 29.4216 19.8226 -21.4382 -2.3709 -9.5994 27.6889 -0.2826 3.2424 -9.4493 -0.2387 3.1443 -8.6806 -5.1813 0.1266 17.3068 -7.4163 -1.3014 8.5877 -4.7167 -0.8487 -0.5603 3.0911 12.4061 -11.5028 -5.1891 16.2162 -3.3777 -1.2863 8.0061 1.5460 0.0000 0.0000 0.0000 -91.5235 -44.0956 32.9581 28.1414 -39.2460 -10.2130 -0.0000 0.0000 -73.3334 29.7685 22.3770 12.2844 -7.1250 0.0000 -0.0000 0.9186 55.3518 0.2334 0.0000 0.0000 0.0000 102.6559 40.4084 90.6264 -21.7402 32.6822 -6.4450 0.0000 -0.0000 -10.5544 -34.5914 6.7539 -4.6368 7.1250 -0.0000 -0.0000 -5.6947 -21.8086 -3.1869
11.0674 17.2203 -3.9951 -24.9487 -58.5861 32.3425 0.0000 0.0000 0.0000 1.6636 13.4539 -43.8297 5.4722 13.8966 42.8247 -0.4391 15.5611 -16.7515 0.0801 1.8256 5.0240 0.0000 0.0000 0.0000 29.4572 19.7294 -21.3443 -2.3546 -9.5685 27.5905 -0.2545 3.6977 -8.9735 -0.2338 3.1118 -8.5902 -5.6878 -0.0758 17.8411 -7.8009 -1.7295 8.7348 -4.7709 -1.0801 -0.6924 3.0556 12.6460 -11.2926 -5.3455 16.5395 -3.6981 -1.3322 8.1750 1.4278 0.0000 -0.0000 0.0000 -91.8259 -43.6785 32.8003 27.1409 -38.3132 -9.5863 -0.0000 0.0000 -71.2612 24.8800 20.4191 9.1908 -7.1250 0.0000 -0.0000 -3.7309 52.2534 -0.6669 0.0000 -0.0000 0.0000 101.9828 40.0145 90.3834 -21.9272 32.8946 -6.5462 0.0000 -0.0000 -10.6538 -34.4933 7.2296 -4.9421 7.1250 -0.0000 -0.0000 -5.5729 -21.2470 -3.1894
11.0782 17.2095 -4.0031 -26.1797 -59.0286 33.5844 0.0000 0.0000 0.0000 2.1126 13.9835 -44.0594 5.5518 13.9795 43.1553 -0.4454 15.6608 -16.8510 0.0635 1.6264 4.4743 0.0000 0.0000 0.0000 29.9418 19.7861 -21.4480 -2.3297 -9.5215 27.4408 -0.2359 4.2605 -8.6928 -0.3005 3.5248 -9.7434 -5.7965 -0.2501 17.9621 -8.0392 -2.0026 8.8825 -4.9206 -1.2243 -0.6111 3.0896 12.7666 -11.4579 -5.5748 16.6934 -3.7489 -1.3863 8.2463 1.4709 -0.0000 -0.0000 0.0000 -92.3647 -43.3610 32.9581 26.7314 -37.9219 -9.3336 -0.0000 0.0000 -70.6437 24.0517 19.8253 8.6074 -7.1250 0.0000 -0.0000 -4.4085 51.4714 -0.7038 -0.0000 -0.0000 0.0000 101.4020 39.6949 89.8579 -21.9871 32.9625 -6.5788 0.0000 -0.0000 -10.5378 -34.1784 7.4526 -5.0334 7.1250 -0.0000 -0.0000 -5.3232 -21.0114 -3.0737
11.0943 17.1916 -4.0030 -28.2107 -59.2551 35.7291 0.0000 0.0000 0.0000 2.9539 14.5929 -44.6106 5.6463 14.0766 43.5452 -0.4840 15.9121 -16.7650 0.0308 1.1332 3.1155 0.0000 0.0000 0.0000 30.7816 20.1418 -21.6846 -2.3026 -9.4698 27.2764 -0.2122 4.6708 -8.3286 -0.3307 3.6959 -10.2228 -5.4252 -0.4208 17.9745 -8.1174 -2.1735 8.9600 -5.1857 -1.3017 -0.5600 2.8145 12.9354 -11.4672 -5.8037 16.9411 -4.0985 -1.4115 8.3761 1.3633 -0.0000 -0.0000 0.0000 -92.7722 -43.0125 33.8931 26.2217 -37.4268 -9.0221 -0.0000 0.0000 -71.2747 23.6680 18.2612 7.8202 -7.1250 0.0000 -0.0000 -4.3924 49.7419 -0.5144 -0.0000 -0.0000 0.0000 100.6694 39.4690 89.1166 -21.9749 32.9487 -6.5722 0.0000 -0.0000 -10.2924 -33.7267 7.2006 -4.7832 7.1250 -0.0000 -0.0000 -5.0252 -21.3558 -2.8610
